<?xml version="1.0" encoding="UTF-8" standalone="no"?>
<!-- Created with Inkscape (http://www.inkscape.org/) -->

<svg
   version="1.1"
   id="svg1"
   width="274.57812"
   height="85.43457"
   viewBox="0 0 274.57813 85.43457"
   xmlns="http://www.w3.org/2000/svg"
   xmlns:svg="http://www.w3.org/2000/svg">
  <defs
     id="defs1">
    <clipPath
       clipPathUnits="userSpaceOnUse"
       id="clipPath3">
      <path
         d="M 0,595.276 H 419.528 V 0 H 0 Z"
         transform="translate(-46.573201,-513.83561)"
         id="path3" />
    </clipPath>
    <clipPath
       clipPathUnits="userSpaceOnUse"
       id="clipPath5">
      <path
         d="M 0,595.276 H 419.528 V 0 H 0 Z"
         transform="translate(-80.362802,-520.78971)"
         id="path5" />
    </clipPath>
    <clipPath
       clipPathUnits="userSpaceOnUse"
       id="clipPath7">
      <path
         d="M 0,595.276 H 419.528 V 0 H 0 Z"
         transform="translate(-108.63231,-509.11301)"
         id="path7" />
    </clipPath>
    <clipPath
       clipPathUnits="userSpaceOnUse"
       id="clipPath9">
      <path
         d="M 0,595.276 H 419.528 V 0 H 0 Z"
         transform="translate(-161.064,-517.57541)"
         id="path9" />
    </clipPath>
    <clipPath
       clipPathUnits="userSpaceOnUse"
       id="clipPath11">
      <path
         d="M 0,595.276 H 419.528 V 0 H 0 Z"
         transform="translate(-215.46781,-516.72242)"
         id="path11" />
    </clipPath>
    <clipPath
       clipPathUnits="userSpaceOnUse"
       id="clipPath13">
      <path
         d="M 0,595.276 H 419.528 V 0 H 0 Z"
         transform="translate(-110.82471,-528.38451)"
         id="path13" />
    </clipPath>
    <clipPath
       clipPathUnits="userSpaceOnUse"
       id="clipPath15">
      <path
         d="M 0,595.276 H 419.528 V 0 H 0 Z"
         transform="translate(-124.1343,-533.79321)"
         id="path15" />
    </clipPath>
    <clipPath
       clipPathUnits="userSpaceOnUse"
       id="clipPath17">
      <path
         d="M 0,595.276 H 419.528 V 0 H 0 Z"
         transform="translate(-138.3315,-528.62231)"
         id="path17" />
    </clipPath>
    <clipPath
       clipPathUnits="userSpaceOnUse"
       id="clipPath19">
      <path
         d="M 0,595.276 H 419.528 V 0 H 0 Z"
         transform="translate(-145.7446,-531.06271)"
         id="path19" />
    </clipPath>
    <clipPath
       clipPathUnits="userSpaceOnUse"
       id="clipPath21">
      <path
         d="M 0,595.276 H 419.528 V 0 H 0 Z"
         transform="translate(-140.44341,-543.71801)"
         id="path21" />
    </clipPath>
    <clipPath
       clipPathUnits="userSpaceOnUse"
       id="clipPath23">
      <path
         d="M 0,595.276 H 419.528 V 0 H 0 Z"
         transform="translate(-120.7129,-528.49431)"
         id="path23" />
    </clipPath>
    <clipPath
       clipPathUnits="userSpaceOnUse"
       id="clipPath25">
      <path
         d="M 0,595.276 H 419.528 V 0 H 0 Z"
         transform="translate(-112.8955,-541.08951)"
         id="path25" />
    </clipPath>
    <clipPath
       clipPathUnits="userSpaceOnUse"
       id="clipPath27">
      <path
         d="M 0,595.276 H 419.528 V 0 H 0 Z"
         transform="translate(-126.6357,-535.23021)"
         id="path27" />
    </clipPath>
    <clipPath
       clipPathUnits="userSpaceOnUse"
       id="clipPath29">
      <path
         d="M 0,595.276 H 419.528 V 0 H 0 Z"
         transform="translate(-121.4575,-534.20971)"
         id="path29" />
    </clipPath>
    <clipPath
       clipPathUnits="userSpaceOnUse"
       id="clipPath31">
      <path
         d="M 0,595.276 H 419.528 V 0 H 0 Z"
         transform="translate(-125.4019,-537.88931)"
         id="path31" />
    </clipPath>
    <clipPath
       clipPathUnits="userSpaceOnUse"
       id="clipPath33">
      <path
         d="M 0,595.276 H 419.528 V 0 H 0 Z"
         transform="translate(-129.0981,-542.01581)"
         id="path33" />
    </clipPath>
    <clipPath
       clipPathUnits="userSpaceOnUse"
       id="clipPath35">
      <path
         d="M 0,595.276 H 419.528 V 0 H 0 Z"
         transform="translate(-117.2163,-536.38061)"
         id="path35" />
    </clipPath>
    <clipPath
       clipPathUnits="userSpaceOnUse"
       id="clipPath37">
      <path
         d="M 0,595.276 H 419.528 V 0 H 0 Z"
         transform="translate(-123.4141,-542.93521)"
         id="path37" />
    </clipPath>
    <clipPath
       clipPathUnits="userSpaceOnUse"
       id="clipPath39">
      <path
         d="M 0,595.276 H 419.528 V 0 H 0 Z"
         transform="translate(-124.1343,-533.79321)"
         id="path39" />
    </clipPath>
    <clipPath
       clipPathUnits="userSpaceOnUse"
       id="clipPath41">
      <path
         d="M 0,595.276 H 419.528 V 0 H 0 Z"
         transform="translate(-157.96341,-529.23501)"
         id="path41" />
    </clipPath>
    <clipPath
       clipPathUnits="userSpaceOnUse"
       id="clipPath43">
      <path
         d="M 0,595.276 H 419.528 V 0 H 0 Z"
         transform="translate(-157.96341,-529.23501)"
         id="path43" />
    </clipPath>
    <clipPath
       clipPathUnits="userSpaceOnUse"
       id="clipPath45">
      <path
         d="M 0,595.276 H 419.528 V 0 H 0 Z"
         transform="translate(-163.27,-504.10761)"
         id="path45" />
    </clipPath>
    <clipPath
       clipPathUnits="userSpaceOnUse"
       id="clipPath47">
      <path
         d="M 0,595.276 H 419.528 V 0 H 0 Z"
         transform="translate(-178.24071,-497.67751)"
         id="path47" />
    </clipPath>
    <clipPath
       clipPathUnits="userSpaceOnUse"
       id="clipPath49">
      <path
         d="M 0,595.276 H 419.528 V 0 H 0 Z"
         transform="translate(-198.5937,-522.76971)"
         id="path49" />
    </clipPath>
    <clipPath
       clipPathUnits="userSpaceOnUse"
       id="clipPath51">
      <path
         d="M 0,595.276 H 419.528 V 0 H 0 Z"
         transform="translate(-193.2061,-534.58321)"
         id="path51" />
    </clipPath>
    <clipPath
       clipPathUnits="userSpaceOnUse"
       id="clipPath53">
      <path
         d="M 0,595.276 H 419.528 V 0 H 0 Z"
         transform="translate(-192.2139,-536.42551)"
         id="path53" />
    </clipPath>
    <clipPath
       clipPathUnits="userSpaceOnUse"
       id="clipPath55">
      <path
         d="M 0,595.276 H 419.528 V 0 H 0 Z"
         transform="translate(-198.5923,-522.76971)"
         id="path55" />
    </clipPath>
    <clipPath
       clipPathUnits="userSpaceOnUse"
       id="clipPath57">
      <path
         d="M 0,595.276 H 419.528 V 0 H 0 Z"
         transform="translate(-164.2432,-504.37181)"
         id="path57" />
    </clipPath>
    <clipPath
       clipPathUnits="userSpaceOnUse"
       id="clipPath59">
      <path
         d="M 0,595.276 H 419.528 V 0 H 0 Z"
         transform="translate(-173.83401,-506.23511)"
         id="path59" />
    </clipPath>
    <clipPath
       clipPathUnits="userSpaceOnUse"
       id="clipPath61">
      <path
         d="M 0,595.276 H 419.528 V 0 H 0 Z"
         transform="translate(-167.85501,-499.58181)"
         id="path61" />
    </clipPath>
    <clipPath
       clipPathUnits="userSpaceOnUse"
       id="clipPath63">
      <path
         d="M 0,595.276 H 419.528 V 0 H 0 Z"
         transform="translate(-173.83401,-506.23511)"
         id="path63" />
    </clipPath>
  </defs>
  <g
     id="g1"
     transform="translate(-30.618932,-61.200894)">
    <path
       id="path2"
       d="M 0,0 C 0,1.443 -0.348,2.559 -1.042,3.346 -1.738,4.133 -2.739,4.69 -4.047,5.019 -5.356,5.347 -7.155,5.511 -9.444,5.511 V -5.838 c 3.189,0 5.56,0.426 7.114,1.279 C -0.777,-3.707 0,-2.187 0,0 m -0.797,17.516 c 0,1.837 -0.665,3.093 -1.993,3.772 -1.329,0.677 -3.547,1.017 -6.654,1.017 V 12.268 c 1.922,0 3.486,0.153 4.692,0.459 1.205,0.306 2.166,0.841 2.882,1.607 0.715,0.765 1.073,1.826 1.073,3.182 m 8.34,-8.922 c 3.802,-2.406 5.704,-5.62 5.704,-9.643 0,-1.75 -0.318,-3.423 -0.951,-5.019 -0.634,-1.597 -1.575,-3.05 -2.821,-4.362 -1.247,-1.313 -2.893,-2.352 -4.937,-3.116 -2.045,-0.766 -4.354,-1.149 -6.929,-1.149 h -14.228 c -2.494,0 -4.283,0.678 -5.366,2.034 -1.083,1.355 -1.624,3.783 -1.624,7.282 v 27.75 c 0,1.486 0.245,2.798 0.735,3.936 0.491,1.136 1.278,2.055 2.361,2.755 1.083,0.699 2.382,1.049 3.894,1.049 h 14.044 c 4.087,-0.044 7.491,-1.236 10.21,-3.575 2.719,-2.34 4.078,-5.346 4.078,-9.02 0,-1.181 -0.092,-2.22 -0.275,-3.116 C 11.253,13.503 10.977,12.705 10.609,12.006 10.241,11.305 9.812,10.693 9.321,10.168 8.831,9.644 8.238,9.119 7.543,8.594"
       style="fill:#5d236a;fill-opacity:1;fill-rule:nonzero;stroke:none"
       transform="matrix(1.3333333,0,0,-1.3333333,62.0976,108.5872)"
       clip-path="url(#clipPath3)" />
    <path
       id="path4"
       d="m 0,0 c -0.696,1.268 -1.595,1.903 -2.698,1.903 -1.064,0 -1.923,-0.832 -2.576,-2.493 -0.655,-1.663 -0.981,-3.566 -0.981,-5.707 0,-2.013 0.306,-3.806 0.92,-5.38 0.613,-1.575 1.471,-2.362 2.575,-2.362 1.144,0 2.064,0.591 2.76,1.771 z m -8.34,-22.108 c -3.23,0 -5.909,1.411 -8.034,4.232 -2.126,2.82 -3.189,6.679 -3.189,11.579 0,4.985 1.052,8.954 3.159,11.906 2.105,2.952 4.793,4.428 8.064,4.428 3.311,0 6.378,-1.246 9.198,-3.739 1.104,2.186 2.883,3.28 5.335,3.28 2.208,0 3.925,-0.515 5.152,-1.541 1.226,-1.029 1.84,-2.92 1.84,-5.675 v -17.057 c 0,-2.624 -0.512,-4.451 -1.534,-5.477 -1.022,-1.028 -2.82,-1.542 -5.396,-1.542 -2.698,0 -4.477,0.809 -5.336,2.427 -2.616,-1.881 -5.702,-2.821 -9.259,-2.821"
       style="fill:#5d236a;fill-opacity:1;fill-rule:nonzero;stroke:none"
       transform="matrix(1.3333333,0,0,-1.3333333,107.1504,99.315067)"
       clip-path="url(#clipPath5)" />
    <path
       id="path6"
       d="m 0,0 c 0.736,-1.488 1.757,-2.231 3.066,-2.231 1.104,0 1.963,0.743 2.576,2.231 0.613,1.486 0.92,3.192 0.92,5.117 0,1.049 -0.083,2.076 -0.246,3.083 -0.163,1.006 -0.388,1.913 -0.674,2.722 -0.287,0.809 -0.655,1.465 -1.104,1.969 -0.45,0.502 -0.961,0.754 -1.533,0.754 -1.268,0 -2.269,-0.81 -3.005,-2.427 L 0,6.33 Z m -0.062,18.565 c 2.699,2.142 5.622,3.214 8.77,3.214 3.189,0 5.846,-1.443 7.972,-4.329 2.125,-2.887 3.189,-6.539 3.189,-10.956 0,-5.336 -1.616,-9.501 -4.845,-12.497 -3.23,-2.996 -7.42,-4.494 -12.571,-4.494 -3.148,0 -5.898,0.481 -8.248,1.443 -2.351,0.962 -4.191,2.406 -5.519,4.33 -1.329,1.925 -2.014,4.242 -2.055,6.954 l -0.122,24.732 c 0,2.711 0.613,4.701 1.84,5.97 1.226,1.268 2.86,1.902 4.905,1.902 2.289,0 3.976,-0.58 5.059,-1.738 1.083,-1.16 1.625,-3.008 1.625,-5.544 z"
       style="fill:#5d236a;fill-opacity:1;fill-rule:nonzero;stroke:none"
       transform="matrix(1.3333333,0,0,-1.3333333,144.84307,114.884)"
       clip-path="url(#clipPath7)" />
    <path
       id="path8"
       d="m 0,0 c 0,-7.478 -0.205,-12.705 -0.613,-15.679 -0.327,-2.668 -0.838,-4.974 -1.533,-6.921 -0.696,-1.945 -1.677,-3.673 -2.944,-5.182 -1.267,-1.509 -2.882,-2.634 -4.844,-3.379 -1.963,-0.743 -4.293,-1.115 -6.991,-1.115 -2.168,0 -4.181,0.34 -6.041,1.017 -1.86,0.678 -3.333,1.509 -4.415,2.492 -1.084,0.985 -1.932,1.958 -2.545,2.92 -0.613,0.963 -0.92,1.793 -0.92,2.493 0,0.7 0.215,1.345 0.644,1.935 0.43,0.59 1.012,0.885 1.748,0.885 0.531,0 1.154,-0.174 1.871,-0.524 0.713,-0.35 1.399,-0.743 2.054,-1.181 0.653,-0.437 1.43,-0.831 2.33,-1.181 0.899,-0.35 1.778,-0.525 2.637,-0.525 2.208,0 3.77,0.591 4.691,1.772 0.92,1.18 1.38,2.864 1.38,5.051 -0.696,-0.307 -1.37,-0.569 -2.024,-0.788 -0.654,-0.218 -1.287,-0.393 -1.901,-0.525 -0.613,-0.13 -1.196,-0.218 -1.748,-0.261 -0.551,-0.044 -1.094,-0.066 -1.625,-0.066 -2.413,0 -4.476,0.722 -6.194,2.164 -1.717,1.444 -2.953,3.225 -3.709,5.347 -0.757,2.121 -1.135,4.405 -1.135,6.855 0,2.45 0.031,4.527 0.092,6.233 0.062,1.705 0.194,3.225 0.399,4.559 0.204,1.333 0.439,2.395 0.705,3.182 0.265,0.787 0.644,1.432 1.134,1.935 0.491,0.502 1.043,0.841 1.656,1.017 0.613,0.174 1.349,0.262 2.208,0.262 2.575,0 4.385,-0.47 5.427,-1.41 1.042,-0.941 1.564,-2.417 1.564,-4.428 l 0.061,-10.562 V -5.15 c 0,-0.328 0.031,-0.732 0.092,-1.213 0.061,-0.483 0.143,-0.832 0.245,-1.05 0.102,-0.219 0.245,-0.449 0.43,-0.689 0.183,-0.241 0.429,-0.405 0.735,-0.492 0.307,-0.088 0.684,-0.131 1.135,-0.131 1.226,0 1.993,0.36 2.3,1.082 0.307,0.722 0.459,2.044 0.459,3.969 l 0.061,10.628 c 0,1.355 0.216,2.449 0.645,3.28 0.429,0.83 1.154,1.465 2.177,1.902 1.021,0.437 2.412,0.656 4.169,0.656 1.063,0 1.973,-0.187 2.73,-0.557 0.756,-0.372 1.358,-0.853 1.809,-1.443 0.449,-0.591 0.786,-1.466 1.012,-2.625 C -0.358,7.008 -0.205,5.838 -0.123,4.658 -0.041,3.477 0,1.924 0,0"
       style="fill:#5d236a;fill-opacity:1;fill-rule:nonzero;stroke:none"
       transform="matrix(1.3333333,0,0,-1.3333333,214.752,103.6008)"
       clip-path="url(#clipPath9)" />
    <path
       id="path10"
       d="m 0,0 c 0,2.449 -0.9,3.674 -2.699,3.674 -0.859,0 -1.564,-0.383 -2.115,-1.148 -0.552,-0.766 -0.87,-1.783 -0.951,-3.051 v -10.102 c 0,-2.668 -0.512,-4.505 -1.533,-5.511 -1.022,-1.007 -2.821,-1.509 -5.396,-1.509 -2.413,0 -4.058,0.601 -4.937,1.804 -0.88,1.203 -1.318,3.182 -1.318,5.937 V 6.232 c 0,2.231 0.561,4.024 1.686,5.38 1.124,1.355 2.626,2.034 4.508,2.034 1.552,0 2.86,-0.242 3.924,-0.722 1.062,-0.482 1.86,-1.312 2.392,-2.493 3.188,2.23 7.072,3.345 11.652,3.345 2.901,0 4.997,-1.224 6.285,-3.673 1.288,-2.45 1.932,-6.473 1.932,-12.071 0,-2.756 -0.062,-4.997 -0.184,-6.724 -0.123,-1.728 -0.317,-3.215 -0.583,-4.461 -0.267,-1.247 -0.685,-2.176 -1.258,-2.788 -0.572,-0.613 -1.236,-1.049 -1.992,-1.312 -0.757,-0.262 -1.727,-0.394 -2.913,-0.394 -2.29,0 -3.936,0.46 -4.937,1.378 -1.002,0.918 -1.502,2.273 -1.502,4.067 z"
       style="fill:#5d236a;fill-opacity:1;fill-rule:nonzero;stroke:none"
       transform="matrix(1.3333333,0,0,-1.3333333,287.2904,104.73813)"
       clip-path="url(#clipPath11)" />
    <path
       id="path12"
       d="M 0,0 C 1.89,1.514 5.697,1.866 6.995,-0.244 4.68,0.969 2.363,0.279 0,0"
       style="fill:#ffffff;fill-opacity:1;fill-rule:nonzero;stroke:none"
       transform="matrix(1.3333333,0,0,-1.3333333,147.76627,89.188667)"
       clip-path="url(#clipPath13)" />
    <path
       id="path14"
       d="M 0,0 C -0.09,0.844 0.363,1.185 1.05,1.383 0.514,1.597 0.054,1.463 -0.204,1.083 -0.438,0.735 -0.43,0.409 0,0 M -0.72,9.142 C -1.552,9.35 -2.277,8.817 -2.368,7.928 c 0.559,0.412 1.085,0.8 1.648,1.214 M -6.918,2.587 C -7.675,1.919 -7.745,0.908 -7.139,0.586 c 0.071,0.639 0.142,1.286 0.221,2.001 M 4.964,8.223 5.068,8.22 C 5.044,8.428 5.075,8.667 4.985,8.84 4.778,9.234 5.018,9.415 5.291,9.538 5.337,9.56 5.607,9.253 5.652,9.068 5.743,8.691 5.75,8.293 5.792,7.904 6.131,8.449 6.308,9.016 6.012,9.586 5.905,9.792 5.625,10.024 5.423,10.025 5.229,10.026 5.023,9.754 4.846,9.578 4.71,9.444 4.611,9.272 4.453,9.062 4.587,8.841 4.775,8.532 4.964,8.223 M 1.268,4.096 C 2.068,4.14 2.615,4.54 2.935,5.244 3.187,5.796 3.178,6.341 2.729,6.985 2.708,5.69 2.042,4.874 1.268,4.096 M -2.677,0.417 c -0.27,-1.2 -0.724,-2.158 -1.794,-2.804 1.465,-0.17 2.403,1.303 1.794,2.804 m 5.178,1.02 C 2.239,0.908 2.038,0.385 1.736,-0.07 1.436,-0.522 1.033,-0.905 0.684,-1.308 1.836,-1.661 3.025,0.216 2.501,1.437 m -13.74,5.859 c 0.968,-2.484 4.321,-3.399 5.777,-1.624 -0.226,0.186 -0.453,0.372 -0.742,0.61 0.579,0.161 1.119,0.243 1.254,0.715 -0.513,0.433 -1.039,0.756 -1.396,1.214 -0.377,0.481 -0.625,1.076 -0.869,1.648 -0.23,0.538 -0.381,1.11 -0.566,1.667 C -7.655,9.889 -7.356,8.314 -6.167,7.067 -6.188,7.03 -6.208,6.993 -6.229,6.956 -6.689,7.054 -7.15,7.152 -7.713,7.271 -7.317,6.686 -6.975,6.179 -6.605,5.632 -8.651,4.83 -9.981,5.909 -11.239,7.296 M 3.474,9.359 C 3.567,9.628 3.651,9.901 3.757,10.166 4.028,10.84 4.567,11.14 5.25,11.178 5.871,11.213 6.239,10.82 6.521,10.317 6.992,9.476 7.149,8.569 7.029,7.618 6.948,6.981 6.655,6.461 6.099,6.175 6.303,5.658 6.541,5.187 6.674,4.686 6.928,3.73 6.696,2.784 6.349,1.914 6.002,1.042 5.501,0.229 5.014,-0.576 4.854,-0.839 4.558,-1.068 4.272,-1.193 2.689,-1.889 1.433,-2.94 0.587,-4.479 0.523,-4.593 0.356,-4.706 0.228,-4.719 c -1.394,-0.142 -2.718,-0.028 -4.035,0.613 -0.922,0.449 -1.992,0.629 -3.017,0.81 -4.49,0.789 -7.678,5.189 -7.022,9.747 0.594,4.122 3.563,7.334 7.519,8.093 2.704,0.519 5.059,-0.347 7.16,-2.012 C 1.579,11.94 2.246,11.238 2.899,10.539 3.186,10.231 3.347,9.803 3.564,9.429 3.534,9.406 3.504,9.382 3.474,9.359"
       style="fill:#ffffff;fill-opacity:1;fill-rule:nonzero;stroke:none"
       transform="matrix(1.3333333,0,0,-1.3333333,165.5124,81.977067)"
       clip-path="url(#clipPath15)" />
    <path
       id="path16"
       d="m 0,0 c -1.486,-0.29 -2.94,-0.319 -4.545,0.205 0.273,0.16 0.455,0.267 0.638,0.374 l -0.082,0.076 c -0.982,-0.58 -1.95,-1.184 -2.947,-1.734 -1.302,-0.719 -2.657,-1.313 -4.132,-1.582 -0.381,-0.069 -0.695,-0.006 -1.04,0.187 -1.161,0.651 -2.382,1.147 -3.725,1.261 -0.588,0.049 -0.606,0.615 -0.859,0.911 h 2.874 c 1.288,2.387 3.495,3.766 6.145,4.59 h -0.813 c 0.066,0.158 0.094,0.262 0.147,0.35 0.626,1.032 1.163,2.099 1.429,3.296 0.041,0.183 0.259,0.405 0.441,0.464 2.048,0.659 3.755,1.835 5.271,3.361 0.82,0.825 1.756,1.532 2.637,2.294 0.271,0.235 0.492,0.199 0.798,0.002 C 3.761,13.073 4.297,11.5 4.733,9.868 4.766,9.746 4.619,9.536 4.504,9.417 3.648,8.542 2.672,7.761 1.938,6.792 0.729,5.197 0.061,3.335 -0.071,1.309 -0.098,0.899 -0.029,0.482 0,0"
       style="fill:#ffffff;fill-opacity:1;fill-rule:nonzero;stroke:none"
       transform="matrix(1.3333333,0,0,-1.3333333,184.442,88.8716)"
       clip-path="url(#clipPath17)" />
    <path
       id="path18"
       d="M 0,0 C 0.999,1.059 2.08,1.957 3.527,2.106 4.476,2.204 5.451,2.048 6.414,1.986 6.65,1.971 6.816,1.964 7.034,2.147 7.392,2.45 7.819,2.695 8.253,2.875 8.802,3.102 9.264,2.927 9.561,2.408 9.766,2.051 9.905,1.651 10.041,1.259 c 0.143,-0.413 0.372,-0.718 0.754,-0.948 0.682,-0.409 1.27,-0.913 1.422,-1.775 0.02,-0.114 0.167,-0.204 0.285,-0.34 -0.097,-0.01 -0.211,-0.06 -0.284,-0.024 -0.647,0.321 -1.342,0.17 -2.015,0.228 -0.688,0.06 -1.373,0.148 -2.135,0.233 0.13,0.26 0.199,0.397 0.267,0.534 C 8.321,-0.817 8.306,-0.8 8.292,-0.783 7.936,-1.075 7.585,-1.374 7.223,-1.658 5.537,-2.984 3.574,-3.571 1.493,-3.83 1.36,-3.846 1.206,-3.814 1.083,-3.758 c -2.191,0.996 -4.441,1.431 -6.823,0.805 -0.162,-0.043 -0.43,0.093 -0.568,0.23 -0.624,0.623 -0.618,1.424 -0.479,2.212 0.453,2.572 1.573,4.789 3.624,6.423 0.891,0.71 1.908,1.26 2.879,1.865 0.151,0.094 0.368,0.15 0.541,0.126 C 2.762,7.551 4.373,6.082 4.458,3.384 4.47,2.981 4.365,2.838 3.931,2.824 2.274,2.769 1.04,1.962 0.205,0.524 0.112,0.364 0.067,0.175 0,0"
       style="fill:#ffffff;fill-opacity:1;fill-rule:nonzero;stroke:none"
       transform="matrix(1.3333333,0,0,-1.3333333,194.32613,85.617733)"
       clip-path="url(#clipPath19)" />
    <path
       id="path20"
       d="m 0,0 c 0.373,0.201 0.731,0.438 1.121,0.597 1.702,0.694 3.444,1.137 5.299,0.759 3.225,-0.658 7.012,-4.768 5.143,-9.688 -0.181,-0.478 -0.411,-0.939 -0.642,-1.395 -0.053,-0.106 -0.206,-0.162 -0.313,-0.241 -0.057,0.133 -0.167,0.267 -0.163,0.397 0.038,1.21 -0.237,2.325 -0.905,3.338 C 8.899,-5.261 7.967,-4.707 6.902,-4.354 5.923,-4.029 4.909,-3.96 3.885,-4.022 3.807,-4.026 3.727,-4.039 3.652,-4.063 3.596,-4.082 3.547,-4.125 3.466,-4.177 3.574,-4.346 3.673,-4.501 3.801,-4.702 3.636,-4.803 3.485,-4.895 3.271,-5.025 2.74,-2.969 1.933,-1.162 -0.05,-0.171 -0.033,-0.114 -0.017,-0.057 0,0"
       style="fill:#ffffff;fill-opacity:1;fill-rule:nonzero;stroke:none"
       transform="matrix(1.3333333,0,0,-1.3333333,187.25787,68.744)"
       clip-path="url(#clipPath21)" />
    <path
       id="path22"
       d="m 0,0 c -0.839,0.059 -1.556,0.272 -2.211,0.682 -0.092,0.057 -0.136,0.194 -0.203,0.295 0.087,0.05 0.196,0.164 0.256,0.142 C -1.495,0.871 -0.836,0.608 -0.184,0.331 -0.11,0.299 -0.083,0.155 0,0"
       style="fill:#ffffff;fill-opacity:1;fill-rule:nonzero;stroke:none"
       transform="matrix(1.3333333,0,0,-1.3333333,160.95053,89.042267)"
       clip-path="url(#clipPath23)" />
    <path
       id="path24"
       d="M 0,0 C 1.257,-1.388 2.587,-2.467 4.633,-1.664 4.264,-1.118 3.922,-0.611 3.526,-0.025 4.089,-0.145 4.549,-0.243 5.01,-0.34 5.03,-0.303 5.051,-0.266 5.071,-0.229 3.883,1.018 3.584,2.592 3.458,4.23 3.643,3.673 3.794,3.101 4.023,2.563 4.268,1.991 4.516,1.396 4.893,0.915 5.25,0.457 5.776,0.134 6.289,-0.3 6.154,-0.771 5.613,-0.854 5.035,-1.015 5.324,-1.252 5.551,-1.438 5.777,-1.624 4.321,-3.399 0.968,-2.485 0,0"
       style="fill:#5d236a;fill-opacity:1;fill-rule:nonzero;stroke:#5d236a;stroke-width:0.5;stroke-linecap:round;stroke-linejoin:round;stroke-miterlimit:10;stroke-dasharray:none;stroke-opacity:1"
       transform="matrix(1.3333333,0,0,-1.3333333,150.52733,72.248667)"
       clip-path="url(#clipPath25)" />
    <path
       id="path26"
       d="m 0,0 c 0.524,-1.221 -0.666,-3.098 -1.817,-2.745 0.349,0.403 0.751,0.786 1.051,1.238 C -0.463,-1.052 -0.263,-0.529 0,0"
       style="fill:#5d236a;fill-opacity:1;fill-rule:nonzero;stroke:#5d236a;stroke-width:0.5;stroke-linecap:round;stroke-linejoin:round;stroke-miterlimit:10;stroke-dasharray:none;stroke-opacity:1"
       transform="matrix(1.3333333,0,0,-1.3333333,168.8476,80.061067)"
       clip-path="url(#clipPath27)" />
    <path
       id="path28"
       d="M 0,0 C 0.609,-1.5 -0.33,-2.973 -1.794,-2.804 -0.724,-2.158 -0.271,-1.2 0,0"
       style="fill:#5d236a;fill-opacity:1;fill-rule:nonzero;stroke:#5d236a;stroke-width:0.5;stroke-linecap:round;stroke-linejoin:round;stroke-miterlimit:10;stroke-dasharray:none;stroke-opacity:1"
       transform="matrix(1.3333333,0,0,-1.3333333,161.94333,81.421733)"
       clip-path="url(#clipPath29)" />
    <path
       id="path30"
       d="M 0,0 C 0.774,0.778 1.44,1.594 1.461,2.889 1.911,2.245 1.919,1.7 1.667,1.147 1.347,0.444 0.8,0.044 0,0"
       style="fill:#5d236a;fill-opacity:1;fill-rule:nonzero;stroke:#5d236a;stroke-width:0.5;stroke-linecap:round;stroke-linejoin:round;stroke-miterlimit:10;stroke-dasharray:none;stroke-opacity:1"
       transform="matrix(1.3333333,0,0,-1.3333333,167.20253,76.5156)"
       clip-path="url(#clipPath31)" />
    <path
       id="path32"
       d="m 0,0 c -0.188,0.31 -0.377,0.619 -0.511,0.839 0.158,0.211 0.258,0.382 0.393,0.516 0.178,0.176 0.384,0.448 0.577,0.447 0.202,0 0.482,-0.233 0.589,-0.438 C 1.344,0.793 1.167,0.227 0.828,-0.319 0.786,0.07 0.779,0.468 0.688,0.846 0.644,1.031 0.373,1.337 0.327,1.315 0.054,1.192 -0.186,1.011 0.021,0.617 0.111,0.444 0.08,0.206 0.104,-0.003 Z"
       style="fill:#5d236a;fill-opacity:1;fill-rule:nonzero;stroke:#5d236a;stroke-width:0.5;stroke-linecap:round;stroke-linejoin:round;stroke-miterlimit:10;stroke-dasharray:none;stroke-opacity:1"
       transform="matrix(1.3333333,0,0,-1.3333333,172.1308,71.0136)"
       clip-path="url(#clipPath33)" />
    <path
       id="path34"
       d="M 0,0 C -0.079,-0.715 -0.15,-1.362 -0.221,-2.001 -0.827,-1.679 -0.757,-0.668 0,0"
       style="fill:#5d236a;fill-opacity:1;fill-rule:nonzero;stroke:#5d236a;stroke-width:0.5;stroke-linecap:round;stroke-linejoin:round;stroke-miterlimit:10;stroke-dasharray:none;stroke-opacity:1"
       transform="matrix(1.3333333,0,0,-1.3333333,156.2884,78.5272)"
       clip-path="url(#clipPath35)" />
    <path
       id="path36"
       d="M 0,0 C -0.562,-0.415 -1.089,-0.802 -1.647,-1.214 -1.557,-0.325 -0.832,0.208 0,0"
       style="fill:#5d236a;fill-opacity:1;fill-rule:nonzero;stroke:#5d236a;stroke-width:0.5;stroke-linecap:round;stroke-linejoin:round;stroke-miterlimit:10;stroke-dasharray:none;stroke-opacity:1"
       transform="matrix(1.3333333,0,0,-1.3333333,164.55213,69.787733)"
       clip-path="url(#clipPath37)" />
    <path
       id="path38"
       d="M 0,0 C -0.43,0.409 -0.438,0.735 -0.204,1.083 0.054,1.463 0.514,1.597 1.05,1.383 0.363,1.185 -0.09,0.844 0,0"
       style="fill:#5d236a;fill-opacity:1;fill-rule:nonzero;stroke:#5d236a;stroke-width:0.5;stroke-linecap:round;stroke-linejoin:round;stroke-miterlimit:10;stroke-dasharray:none;stroke-opacity:1"
       transform="matrix(1.3333333,0,0,-1.3333333,165.5124,81.977067)"
       clip-path="url(#clipPath39)" />
    <path
       id="path40"
       d="m 0,0 c -0.648,0.321 -1.342,0.17 -2.016,0.228 -0.688,0.06 -1.373,0.148 -2.135,0.232 0.13,0.261 0.199,0.397 0.268,0.534 -0.015,0.017 -0.03,0.033 -0.044,0.05 -0.356,-0.292 -0.707,-0.589 -1.069,-0.874 -1.686,-1.327 -3.649,-1.913 -5.73,-2.172 -0.132,-0.017 -0.287,0.015 -0.41,0.071 -2.191,0.996 -4.441,1.431 -6.823,0.806 -0.162,-0.043 -0.43,0.093 -0.567,0.23 -0.624,0.623 -0.619,1.423 -0.48,2.212 0.453,2.571 1.573,4.789 3.624,6.422 0.891,0.71 1.908,1.261 2.879,1.865 0.151,0.094 0.368,0.151 0.541,0.126 2.505,-0.352 4.116,-1.821 4.201,-4.519 0.012,-0.402 -0.093,-0.545 -0.527,-0.56 -1.657,-0.055 -2.891,-0.861 -3.726,-2.299 -0.092,-0.16 -0.137,-0.349 -0.205,-0.524 0.999,1.059 2.08,1.957 3.527,2.106 0.949,0.097 1.924,-0.058 2.887,-0.12 0.236,-0.015 0.403,-0.022 0.62,0.161 0.358,0.303 0.785,0.548 1.219,0.728 0.549,0.226 1.011,0.051 1.308,-0.467 0.205,-0.357 0.345,-0.757 0.48,-1.15 C -2.035,2.674 -1.806,2.368 -1.424,2.139 -0.742,1.73 -0.153,1.226 -0.001,0.364 0.019,0.25 0.165,0.16 0.283,0.023 0.186,0.014 0.072,-0.036 0,0 m -19.703,0.696 c -0.026,-0.41 0.042,-0.827 0.071,-1.309 -1.486,-0.29 -2.94,-0.318 -4.545,0.205 0.273,0.16 0.455,0.267 0.637,0.374 -0.027,0.026 -0.054,0.051 -0.081,0.076 -0.982,-0.58 -1.95,-1.184 -2.947,-1.734 -1.302,-0.719 -2.657,-1.312 -4.132,-1.581 -0.381,-0.07 -0.695,-0.007 -1.04,0.187 -1.161,0.65 -2.382,1.147 -3.725,1.26 -0.588,0.05 -0.606,0.616 -0.859,0.911 h 2.874 c 1.288,2.387 3.495,3.767 6.145,4.59 h -0.813 c 0.066,0.158 0.094,0.262 0.147,0.35 0.626,1.032 1.163,2.1 1.429,3.296 0.041,0.183 0.259,0.406 0.441,0.464 2.048,0.659 3.755,1.836 5.271,3.361 0.82,0.826 1.756,1.532 2.638,2.294 0.27,0.235 0.491,0.2 0.797,0.002 1.524,-0.982 2.06,-2.555 2.496,-4.187 0.033,-0.122 -0.114,-0.332 -0.229,-0.45 -0.856,-0.876 -1.831,-1.657 -2.565,-2.625 -1.21,-1.596 -1.878,-3.458 -2.01,-5.484 M -37.636,0.452 c -0.922,0.449 -1.992,0.63 -3.017,0.81 -4.49,0.789 -7.678,5.189 -7.022,9.747 0.594,4.122 3.563,7.334 7.519,8.094 2.704,0.518 5.059,-0.348 7.16,-2.013 0.746,-0.591 1.413,-1.294 2.066,-1.993 0.268,-0.288 0.428,-0.679 0.625,-1.034 0.076,0.221 0.146,0.444 0.233,0.661 0.271,0.674 0.81,0.974 1.493,1.012 0.621,0.035 0.989,-0.358 1.27,-0.861 0.472,-0.841 0.629,-1.748 0.509,-2.699 -0.081,-0.637 -0.374,-1.157 -0.93,-1.443 0.204,-0.517 0.442,-0.988 0.575,-1.489 0.254,-0.955 0.022,-1.902 -0.325,-2.772 -0.347,-0.871 -0.848,-1.684 -1.335,-2.49 -0.16,-0.263 -0.456,-0.492 -0.742,-0.617 -1.583,-0.696 -2.839,-1.747 -3.685,-3.285 -0.064,-0.115 -0.231,-0.227 -0.36,-0.241 -1.393,-0.142 -2.717,-0.027 -4.034,0.613 m -1.825,-0.511 c -0.093,0.058 -0.137,0.195 -0.203,0.295 0.086,0.05 0.196,0.164 0.255,0.142 0.664,-0.248 1.323,-0.51 1.974,-0.788 0.075,-0.031 0.102,-0.175 0.185,-0.33 -0.84,0.058 -1.557,0.271 -2.211,0.681 m 21.941,14.542 c 0.373,0.201 0.731,0.438 1.121,0.597 1.702,0.693 3.444,1.137 5.299,0.759 3.225,-0.658 7.012,-4.768 5.143,-9.688 C -6.138,5.673 -6.368,5.212 -6.599,4.756 -6.652,4.649 -6.805,4.594 -6.912,4.515 c -0.057,0.132 -0.167,0.267 -0.163,0.397 0.038,1.21 -0.237,2.325 -0.905,3.338 -0.641,0.972 -1.573,1.526 -2.638,1.879 -0.979,0.325 -1.993,0.393 -3.017,0.332 -0.078,-0.004 -0.158,-0.017 -0.233,-0.041 -0.056,-0.019 -0.105,-0.063 -0.186,-0.114 0.108,-0.169 0.207,-0.325 0.335,-0.525 -0.165,-0.101 -0.316,-0.193 -0.53,-0.323 -0.531,2.056 -1.338,3.863 -3.321,4.854 0.017,0.057 0.033,0.114 0.05,0.171 M 0.501,0.993 c -0.347,0.736 -0.892,1.282 -1.569,1.706 -0.126,0.078 0.388,-0.269 0,0 C -0.894,2.73 -1.665,2.973 -1.5,3.001 -1.557,3.059 -1.575,3.132 -1.62,3.2 -1.813,3.63 -1.834,3.76 -2.052,4.326 -2.144,4.564 -1.977,4.371 -2.113,4.585 -2.61,5.361 -3.315,5.627 -4.172,5.312 -4.584,5.16 -4.963,4.911 -5.343,4.683 -5.578,4.542 -5.788,4.356 -6.009,4.19 c 0.047,0.315 0.172,0.567 0.295,0.818 2.043,4.169 0.359,9.063 -3.858,10.955 -3.006,1.349 -5.81,0.499 -8.481,-1.093 -0.114,-0.068 -0.267,-0.228 -0.255,-0.327 0.062,-0.501 -0.344,-0.621 -0.618,-0.851 -0.405,-0.338 -0.82,-0.663 -1.211,-1.016 -0.914,-0.824 -1.797,-1.684 -2.729,-2.486 -1.016,-0.875 -2.229,-1.375 -3.393,-1.745 -0.266,0.867 -0.515,1.681 -0.777,2.534 0.132,0.186 0.39,0.432 0.507,0.734 0.522,1.355 0.374,2.658 -0.468,3.841 -0.471,0.662 -1.163,0.942 -1.933,0.661 -0.483,-0.175 -0.898,-0.539 -1.329,-0.81 -0.635,0.611 -1.283,1.3 -1.998,1.907 -1.761,1.495 -3.758,2.466 -6.093,2.57 -3.824,0.171 -7.683,-2.322 -9.178,-6.053 -1.494,-3.725 -1.219,-7.237 1.596,-10.311 0.184,-0.202 0.399,-0.374 0.6,-0.56 0,0 0.444,-0.448 0.903,-0.775 1.28,-0.761 2.553,-1.51 4.107,-1.646 -0.119,-0.816 0.377,-1.197 0.995,-1.403 0.688,-0.229 1.402,-0.399 2.117,-0.513 0.353,-0.058 0.549,-0.154 0.594,-0.478 -1.188,-0.353 -2.349,-0.699 -3.51,-1.045 0.013,-0.044 0.026,-0.089 0.039,-0.133 0.346,0.045 0.691,0.096 1.038,0.135 1.404,0.157 2.825,0.516 4.217,0.13 1.186,-0.329 2.336,-0.821 3.464,-1.328 1.02,-0.458 2.528,0.849 3.701,0.968 -0.699,0.234 -1.842,-1.174 -2.499,-0.954 0.01,0.047 0.02,0.095 0.029,0.142 1.816,0.614 3.421,1.615 4.972,2.722 0.168,0.12 0.46,0.185 0.654,0.13 1.672,-0.472 3.352,-0.529 5.054,-0.203 0.156,0.029 0.335,-0.066 0.622,-0.131 0.618,-1.182 1.205,-1.591 0.794,-1.877 1.342,0 -6.188,3.662 0.471,1.294 -0.514,1.653 7.028,-0.324 7.754,-0.875 0.088,0.038 -0.045,0.397 0.01,0.411 1.805,0.467 3.504,1.157 4.978,2.344 0.091,0.073 0.259,0.09 0.383,0.073 1.533,-0.213 3.062,-0.46 4.6,-0.633 0.243,-0.027 0.602,0.21 0.766,0.433 0.21,0.285 0.12,0.642 -0.165,0.909 C 0.655,0.751 0.561,0.868 0.501,0.993"
       style="fill:#5d236a;fill-opacity:1;fill-rule:nonzero;stroke:none"
       transform="matrix(1.3333333,0,0,-1.3333333,210.61787,88.054667)"
       clip-path="url(#clipPath41)" />
    <path
       id="path42"
       d="m 0,0 c -0.648,0.321 -1.342,0.17 -2.016,0.228 -0.688,0.06 -1.373,0.148 -2.135,0.232 0.13,0.261 0.199,0.397 0.268,0.534 -0.015,0.017 -0.03,0.033 -0.044,0.05 -0.356,-0.292 -0.707,-0.589 -1.069,-0.874 -1.686,-1.327 -3.649,-1.913 -5.73,-2.172 -0.132,-0.017 -0.287,0.015 -0.41,0.071 -2.191,0.996 -4.441,1.431 -6.823,0.806 -0.162,-0.043 -0.43,0.093 -0.567,0.23 -0.624,0.623 -0.619,1.423 -0.48,2.212 0.453,2.571 1.573,4.789 3.624,6.422 0.891,0.71 1.908,1.261 2.879,1.865 0.151,0.094 0.368,0.151 0.541,0.126 2.505,-0.352 4.116,-1.821 4.201,-4.519 0.012,-0.402 -0.093,-0.545 -0.527,-0.56 -1.657,-0.055 -2.891,-0.861 -3.726,-2.299 -0.092,-0.16 -0.137,-0.349 -0.205,-0.524 0.999,1.059 2.08,1.957 3.527,2.106 0.949,0.097 1.924,-0.058 2.887,-0.12 0.236,-0.015 0.403,-0.022 0.62,0.161 0.358,0.303 0.785,0.548 1.219,0.728 0.549,0.226 1.011,0.051 1.308,-0.467 0.205,-0.357 0.345,-0.757 0.48,-1.15 C -2.035,2.674 -1.806,2.368 -1.424,2.139 -0.742,1.73 -0.153,1.226 -0.001,0.364 0.019,0.25 0.165,0.16 0.283,0.023 0.186,0.014 0.072,-0.036 0,0 Z m -19.703,0.696 c -0.026,-0.41 0.042,-0.827 0.071,-1.309 -1.486,-0.29 -2.94,-0.318 -4.545,0.205 0.273,0.16 0.455,0.267 0.637,0.374 -0.027,0.026 -0.054,0.051 -0.081,0.076 -0.982,-0.58 -1.95,-1.184 -2.947,-1.734 -1.302,-0.719 -2.657,-1.312 -4.132,-1.581 -0.381,-0.07 -0.695,-0.007 -1.04,0.187 -1.161,0.65 -2.382,1.147 -3.725,1.26 -0.588,0.05 -0.606,0.616 -0.859,0.911 h 2.874 c 1.288,2.387 3.495,3.767 6.145,4.59 h -0.813 c 0.066,0.158 0.094,0.262 0.147,0.35 0.626,1.032 1.163,2.1 1.429,3.296 0.041,0.183 0.259,0.406 0.441,0.464 2.048,0.659 3.755,1.836 5.271,3.361 0.82,0.826 1.756,1.532 2.638,2.294 0.27,0.235 0.491,0.2 0.797,0.002 1.524,-0.982 2.06,-2.555 2.496,-4.187 0.033,-0.122 -0.114,-0.332 -0.229,-0.45 -0.856,-0.876 -1.831,-1.657 -2.565,-2.625 -1.21,-1.596 -1.878,-3.458 -2.01,-5.484 z M -37.636,0.452 c -0.922,0.449 -1.992,0.63 -3.017,0.81 -4.49,0.789 -7.678,5.189 -7.022,9.747 0.594,4.122 3.563,7.334 7.519,8.094 2.704,0.518 5.059,-0.348 7.16,-2.013 0.746,-0.591 1.413,-1.294 2.066,-1.993 0.268,-0.288 0.428,-0.679 0.625,-1.034 0.076,0.221 0.146,0.444 0.233,0.661 0.271,0.674 0.81,0.974 1.493,1.012 0.621,0.035 0.989,-0.358 1.27,-0.861 0.472,-0.841 0.629,-1.748 0.509,-2.699 -0.081,-0.637 -0.374,-1.157 -0.93,-1.443 0.204,-0.517 0.442,-0.988 0.575,-1.489 0.254,-0.955 0.022,-1.902 -0.325,-2.772 -0.347,-0.871 -0.848,-1.684 -1.335,-2.49 -0.16,-0.263 -0.456,-0.492 -0.742,-0.617 -1.583,-0.696 -2.839,-1.747 -3.685,-3.285 -0.064,-0.115 -0.231,-0.227 -0.36,-0.241 -1.393,-0.142 -2.717,-0.027 -4.034,0.613 z m -1.825,-0.511 c -0.093,0.058 -0.137,0.195 -0.203,0.295 0.086,0.05 0.196,0.164 0.255,0.142 0.664,-0.248 1.323,-0.51 1.974,-0.788 0.075,-0.031 0.102,-0.175 0.185,-0.33 -0.84,0.058 -1.557,0.271 -2.211,0.681 z m 21.941,14.542 c 0.373,0.201 0.731,0.438 1.121,0.597 1.702,0.693 3.444,1.137 5.299,0.759 3.225,-0.658 7.012,-4.768 5.143,-9.688 C -6.138,5.673 -6.368,5.212 -6.599,4.756 -6.652,4.649 -6.805,4.594 -6.912,4.515 c -0.057,0.132 -0.167,0.267 -0.163,0.397 0.038,1.21 -0.237,2.325 -0.905,3.338 -0.641,0.972 -1.573,1.526 -2.638,1.879 -0.979,0.325 -1.993,0.393 -3.017,0.332 -0.078,-0.004 -0.158,-0.017 -0.233,-0.041 -0.056,-0.019 -0.105,-0.063 -0.186,-0.114 0.108,-0.169 0.207,-0.325 0.335,-0.525 -0.165,-0.101 -0.316,-0.193 -0.53,-0.323 -0.531,2.056 -1.338,3.863 -3.321,4.854 0.017,0.057 0.033,0.114 0.05,0.171 z M 0.501,0.993 c -0.347,0.736 -0.892,1.282 -1.569,1.706 -0.126,0.078 0.388,-0.269 0,0 C -0.894,2.73 -1.665,2.973 -1.5,3.001 -1.557,3.059 -1.575,3.132 -1.62,3.2 -1.813,3.63 -1.834,3.76 -2.052,4.326 -2.144,4.564 -1.977,4.371 -2.113,4.585 -2.61,5.361 -3.315,5.627 -4.172,5.312 -4.584,5.16 -4.963,4.911 -5.343,4.683 -5.578,4.542 -5.788,4.356 -6.009,4.19 c 0.047,0.315 0.172,0.567 0.295,0.818 2.043,4.169 0.359,9.063 -3.858,10.955 -3.006,1.349 -5.81,0.499 -8.481,-1.093 -0.114,-0.068 -0.267,-0.228 -0.255,-0.327 0.062,-0.501 -0.344,-0.621 -0.618,-0.851 -0.405,-0.338 -0.82,-0.663 -1.211,-1.016 -0.914,-0.824 -1.797,-1.684 -2.729,-2.486 -1.016,-0.875 -2.229,-1.375 -3.393,-1.745 -0.266,0.867 -0.515,1.681 -0.777,2.534 0.132,0.186 0.39,0.432 0.507,0.734 0.522,1.355 0.374,2.658 -0.468,3.841 -0.471,0.662 -1.163,0.942 -1.933,0.661 -0.483,-0.175 -0.898,-0.539 -1.329,-0.81 -0.635,0.611 -1.283,1.3 -1.998,1.907 -1.761,1.495 -3.758,2.466 -6.093,2.57 -3.824,0.171 -7.683,-2.322 -9.178,-6.053 -1.494,-3.725 -1.219,-7.237 1.596,-10.311 0.184,-0.202 0.399,-0.374 0.6,-0.56 0,0 0.444,-0.448 0.903,-0.775 1.28,-0.761 2.553,-1.51 4.107,-1.646 -0.119,-0.816 0.377,-1.197 0.995,-1.403 0.688,-0.229 1.402,-0.399 2.117,-0.513 0.353,-0.058 0.549,-0.154 0.594,-0.478 -1.188,-0.353 -2.349,-0.699 -3.51,-1.045 0.013,-0.044 0.026,-0.089 0.039,-0.133 0.346,0.045 0.691,0.096 1.038,0.135 1.404,0.157 2.825,0.516 4.217,0.13 1.186,-0.329 2.336,-0.821 3.464,-1.328 1.02,-0.458 2.528,0.849 3.701,0.968 -0.699,0.234 -1.842,-1.174 -2.499,-0.954 0.01,0.047 0.02,0.095 0.029,0.142 1.816,0.614 3.421,1.615 4.972,2.722 0.168,0.12 0.46,0.185 0.654,0.13 1.672,-0.472 3.352,-0.529 5.054,-0.203 0.156,0.029 0.335,-0.066 0.622,-0.131 0.618,-1.182 1.205,-1.591 0.794,-1.877 1.342,0 -6.188,3.662 0.471,1.294 -0.514,1.653 7.028,-0.324 7.754,-0.875 0.088,0.038 -0.045,0.397 0.01,0.411 1.805,0.467 3.504,1.157 4.978,2.344 0.091,0.073 0.259,0.09 0.383,0.073 1.533,-0.213 3.062,-0.46 4.6,-0.633 0.243,-0.027 0.602,0.21 0.766,0.433 0.21,0.285 0.12,0.642 -0.165,0.909 C 0.655,0.751 0.561,0.868 0.501,0.993 Z"
       style="fill:none;stroke:#5d236a;stroke-width:0.5;stroke-linecap:round;stroke-linejoin:round;stroke-miterlimit:10;stroke-dasharray:none;stroke-opacity:1"
       transform="matrix(1.3333333,0,0,-1.3333333,210.61787,88.054667)"
       clip-path="url(#clipPath43)" />
    <path
       id="path44"
       d="M 0,0 C -0.229,0.251 -0.445,0.51 -0.658,0.79 L -0.659,0.789 C -0.822,1 -4.687,6.013 -5.801,11.714 -6.905,17.43 -6.065,22.543 -3.16,27.809 0.401,34.65 7.412,38.914 15.125,38.914 c 5.558,0 9.512,-1.474 13.65,-5.085 l 0.038,-0.034 0.035,-0.037 c 1.099,-1.159 2.028,-2.653 2.067,-2.716 l 1.027,-1.661 -4.283,0.041 C 26.65,28.35 25.677,27.586 24.733,26.844 23.759,26.08 22.839,25.357 21.874,24.307 l -0.638,-0.694 -0.772,0.541 c -1.52,1.065 -3.401,1.652 -5.297,1.652 -2.465,0 -4.654,-0.946 -6.162,-2.663 -2.595,-2.786 -3.394,-5.936 -2.463,-9.654 0.161,-0.647 0.434,-1.32 0.81,-2 L 9.176,8.596 7.49,6.346 3.354,1.893 0.787,-0.863 Z"
       style="fill:#ffffff;fill-opacity:1;fill-rule:nonzero;stroke:none"
       transform="matrix(1.3333333,0,0,-1.3333333,217.69333,121.55787)"
       clip-path="url(#clipPath45)" />
    <path
       id="path46"
       d="m 0,0 c -4.476,0 -8.886,1.5 -12.753,4.335 -0.436,0.321 -0.716,0.815 -0.768,1.355 -0.052,0.548 0.132,1.094 0.506,1.497 2.173,2.346 4.355,4.71 6.537,7.094 l 0.683,0.745 0.787,-0.635 c 1.402,-1.131 3.216,-1.753 5.107,-1.753 2.62,0 5.031,1.141 6.79,3.212 2.232,2.554 2.955,5.921 1.999,9.254 l -0.471,1.244 c -0.168,0.009 -0.334,0.03 -0.493,0.063 -0.926,0.194 -1.712,0.725 -2.213,1.493 -0.496,0.761 -0.662,1.682 -0.468,2.595 0,0 0.454,2.128 0.567,2.663 0.007,0.04 0.008,0.083 0.011,0.125 l 0.02,0.217 0.877,3.923 0.181,0.331 c 0.101,0.19 0.202,0.378 0.32,0.555 0.57,0.855 1.401,1.325 2.342,1.325 0.205,0 0.416,-0.023 0.627,-0.068 2.302,-0.487 4.64,-1.006 6.951,-1.541 0.456,-0.106 0.916,-0.346 1.367,-0.715 1.059,-0.865 1.41,-2.376 0.852,-3.674 -0.483,-1.127 -1.59,-1.895 -2.777,-1.94 0.009,-0.015 0.311,-0.492 0.448,-0.708 l 1.893,0.874 h 0.237 c 1.006,0 1.251,-0.784 1.863,-4.135 0.311,-1.705 0.445,-2.436 0.436,-2.828 C 22.37,16.803 19.854,10.062 14.17,5.393 10.128,1.976 5.371,0.109 0.424,0.005 0.283,0.002 0.142,0 0.001,0 Z"
       style="fill:#ffffff;fill-opacity:1;fill-rule:evenodd;stroke:none"
       transform="matrix(1.3333333,0,0,-1.3333333,237.65427,130.13133)"
       clip-path="url(#clipPath47)" />
    <path
       id="path48"
       d="m 0,0 0.006,0.014 c 0,0 0.199,-0.821 -0.395,2.431 -0.594,3.252 -0.805,3.252 -0.805,3.252 L -3.733,4.525 c -0.626,1.01 -1.616,2.543 -2.016,3.215 -0.044,0.074 -0.072,0.159 -0.154,0.343 0.648,-0.144 1.199,-0.307 1.762,-0.384 0.908,-0.124 1.793,0.423 2.158,1.273 0.359,0.837 0.153,1.847 -0.544,2.417 -0.269,0.219 -0.598,0.422 -0.931,0.499 -2.305,0.535 -4.615,1.047 -6.93,1.537 -0.776,0.164 -1.408,-0.137 -1.85,-0.8 -0.143,-0.215 -0.255,-0.451 -0.381,-0.677 l -0.829,-3.711 c -0.013,-0.129 -0.016,-0.261 -0.042,-0.388 -0.187,-0.889 -0.379,-1.777 -0.568,-2.665 -0.279,-1.318 0.531,-2.535 1.85,-2.812 1.175,-0.247 2.822,0.556 2.77,2.14 -0.007,0.214 0.022,0.429 0.034,0.644 l 0.071,0.009 C -8.827,4.333 -8.32,3.499 -7.802,2.647 l -2.989,-1.379 0.347,-0.915 c 1.046,-3.592 0.312,-7.418 -2.2,-10.292 -3.689,-4.345 -9.693,-4.583 -13.393,-1.6 -2.184,-2.384 -4.367,-4.75 -6.542,-7.098 -0.34,-0.368 -0.295,-0.955 0.11,-1.252 3.868,-2.837 8.211,-4.214 12.517,-4.123 4.584,0.097 9.149,1.816 13.086,5.145 C -0.839,-13.917 0.878,-7.137 0,0"
       style="fill:#ffffff;fill-opacity:1;fill-rule:evenodd;stroke:none"
       transform="matrix(1.3333333,0,0,-1.3333333,264.7916,96.675067)"
       clip-path="url(#clipPath49)" />
    <path
       id="path50"
       d="m 0,0 c 0,0 -0.896,1.45 -1.933,2.542 -3.936,3.437 -7.617,4.82 -12.942,4.82 -6.701,0 -13.64,-3.436 -17.342,-10.549 -2.528,-4.581 -3.679,-9.401 -2.528,-15.368 1.079,-5.515 4.936,-10.471 4.936,-10.471 v 0.002 c 0.184,-0.242 0.384,-0.484 0.605,-0.727 1.091,1.171 1.851,1.988 2.491,2.675 l 1.565,-1.363 c -0.467,-0.511 -0.925,-0.997 -1.365,-1.498 -1.039,-1.188 -0.534,-2.895 0.957,-3.221 0.738,-0.162 1.356,0.08 1.859,0.636 0.454,0.5 0.911,0.999 1.392,1.524 0.4,-0.365 0.763,-0.719 1.15,-1.045 1.01,-0.852 2.461,-0.513 3.001,0.69 0.331,0.738 0.132,1.604 -0.511,2.2 -0.346,0.321 -0.697,0.637 -1.064,0.972 0.109,0.12 0.187,0.204 0.264,0.29 0.455,0.504 0.921,0.998 1.36,1.516 0.502,0.592 0.558,1.423 0.173,2.11 -0.38,0.677 -1.142,1.056 -1.899,0.959 -0.536,-0.068 -0.945,-0.349 -1.298,-0.732 -0.452,-0.489 -0.899,-0.983 -1.356,-1.484 l -1.613,1.262 c 0.532,0.573 1.155,1.246 1.964,2.12 l -1.455,2.633 c -0.395,0.713 -0.715,1.469 -0.913,2.26 -1.057,4.223 -0.026,7.7 2.699,10.624 3.227,3.675 8.969,3.928 12.885,1.183 2.104,2.287 4.031,3.133 6.108,5.467 z"
       style="fill:#f24dae;fill-opacity:1;fill-rule:nonzero;stroke:none"
       transform="matrix(1.3333333,0,0,-1.3333333,257.60813,80.923733)"
       clip-path="url(#clipPath51)" />
    <path
       id="path52"
       d="M 0,0 C 0,0 -3.479,0.848 -4.112,0.874 -4.745,0.9 -5.666,0.84 -6.411,0 -7.157,-0.839 -7.249,-1.301 -7.328,-1.617 -7.407,-1.934 -8.451,-6.938 -8.451,-6.938 l 0.661,-0.571 9.017,6.274 z"
       style="fill:#ffffff;fill-opacity:1;fill-rule:nonzero;stroke:none"
       transform="matrix(1.3333333,0,0,-1.3333333,256.2852,78.467333)"
       clip-path="url(#clipPath53)" />
    <path
       id="path54"
       d="m 0,0 0.006,0.014 c 0,0 0.198,-0.821 -0.396,2.431 -0.593,3.252 -0.804,3.252 -0.804,3.252 L -3.733,4.525 c -0.626,1.01 -1.616,2.543 -2.016,3.215 -0.044,0.074 -0.072,0.159 -0.154,0.343 0.648,-0.144 1.199,-0.307 1.762,-0.384 0.908,-0.124 1.792,0.423 2.157,1.273 0.359,0.837 0.153,1.847 -0.543,2.417 -0.269,0.219 -0.598,0.422 -0.931,0.499 -2.305,0.535 -4.616,1.047 -6.931,1.537 -0.775,0.164 -1.407,-0.137 -1.849,-0.8 -0.143,-0.215 -0.255,-0.451 -0.381,-0.677 l -0.829,-3.711 c -0.013,-0.129 -0.016,-0.261 -0.043,-0.388 -0.186,-0.889 -0.378,-1.777 -0.567,-2.665 -0.279,-1.318 0.53,-2.535 1.85,-2.812 1.175,-0.247 2.822,0.556 2.77,2.14 -0.008,0.214 0.021,0.429 0.034,0.644 0.024,0.003 0.047,0.006 0.07,0.009 0.507,-0.832 1.014,-1.666 1.532,-2.518 l -2.989,-1.379 0.347,-0.915 c 1.046,-3.592 0.311,-7.418 -2.2,-10.292 -3.69,-4.345 -9.693,-4.583 -13.393,-1.6 -2.397,-2.616 -4.792,-5.21 -7.176,-7.782 4.05,-3.221 8.677,-4.787 13.261,-4.691 4.584,0.097 9.149,1.816 13.086,5.145 C -0.839,-13.917 0.878,-7.137 0,0"
       style="fill:#4dc6f4;fill-opacity:1;fill-rule:evenodd;stroke:none"
       transform="matrix(1.3333333,0,0,-1.3333333,264.78973,96.675067)"
       clip-path="url(#clipPath55)" />
    <path
       id="path56"
       d="m 0,0 -0.186,-1.127 c 0.924,-1.009 1.73,-1.448 1.73,-1.448 L 0.863,0 Z"
       style="fill:#ffffff;fill-opacity:1;fill-rule:evenodd;stroke:none"
       transform="matrix(1.3333333,0,0,-1.3333333,218.99093,121.2056)"
       clip-path="url(#clipPath57)" />
    <path
       id="path58"
       d="M 0,0 C 0.121,0.132 0.208,0.226 0.293,0.321 0.797,0.88 1.314,1.429 1.801,2.002 2.359,2.659 2.421,3.582 1.993,4.344 1.572,5.095 0.726,5.515 -0.113,5.408 -0.708,5.333 -1.162,5.02 -1.554,4.595 -2.054,4.053 -2.551,3.504 -3.058,2.949 l -2.75,2.152 -2.975,-2.975 2.771,-2.413 c -0.518,-0.567 -1.027,-1.106 -1.514,-1.663 -1.154,-1.318 -0.593,-3.212 1.062,-3.573 0.818,-0.179 1.503,0.09 2.062,0.705 0.504,0.556 1.011,1.109 1.544,1.693 0.444,-0.406 0.847,-0.799 1.275,-1.161 1.121,-0.944 2.731,-0.569 3.33,0.766 0.368,0.819 0.147,1.779 -0.566,2.441 C 0.796,-0.723 0.407,-0.372 0,0"
       style="fill:#f24dae;fill-opacity:1;fill-rule:nonzero;stroke:none"
       transform="matrix(1.3333333,0,0,-1.3333333,231.77867,118.7212)"
       clip-path="url(#clipPath59)" />
    <path
       id="path60"
       d="m 0,0 c -0.234,0 -0.475,0.026 -0.715,0.079 -1.128,0.246 -2.009,1.025 -2.358,2.084 -0.365,1.106 -0.097,2.321 0.716,3.249 0.255,0.293 0.517,0.58 0.783,0.869 l -0.745,0.616 4.396,4.733 0.721,-0.565 c 0.279,0.306 0.557,0.611 0.836,0.913 0.622,0.674 1.308,1.051 2.096,1.151 0.132,0.017 0.264,0.025 0.395,0.025 1.154,0 2.221,-0.624 2.785,-1.63 C 9.567,10.354 9.446,8.955 8.601,7.959 8.251,7.548 7.887,7.149 7.523,6.75 L 7.499,6.724 C 7.631,6.604 7.762,6.484 7.892,6.363 8.948,5.382 9.269,3.942 8.708,2.693 8.175,1.504 7.058,0.767 5.793,0.767 v 0 C 5.041,0.767 4.298,1.043 3.703,1.545 3.527,1.693 3.356,1.846 3.185,2.002 L 2.374,1.113 C 1.713,0.385 0.892,0 0,0"
       style="fill:#ffffff;fill-opacity:1;fill-rule:nonzero;stroke:none"
       transform="matrix(1.3333333,0,0,-1.3333333,223.80667,127.59227)"
       clip-path="url(#clipPath61)" />
    <path
       id="path62"
       d="M 0,0 C 0.121,0.132 0.208,0.226 0.293,0.321 0.797,0.88 1.314,1.429 1.801,2.002 2.359,2.659 2.421,3.582 1.993,4.344 1.572,5.095 0.726,5.515 -0.113,5.408 -0.708,5.333 -1.162,5.02 -1.554,4.595 -2.054,4.053 -2.551,3.504 -3.058,2.949 l -2.75,2.152 -2.975,-2.975 2.771,-2.413 c -0.518,-0.567 -1.027,-1.106 -1.514,-1.663 -1.154,-1.318 -0.593,-3.212 1.062,-3.573 0.818,-0.179 1.503,0.09 2.062,0.705 0.504,0.556 1.011,1.109 1.544,1.693 0.444,-0.406 0.847,-0.799 1.275,-1.161 1.121,-0.944 2.731,-0.569 3.33,0.766 0.368,0.819 0.147,1.779 -0.566,2.441 C 0.796,-0.723 0.407,-0.372 0,0"
       style="fill:#f24dae;fill-opacity:1;fill-rule:nonzero;stroke:none"
       transform="matrix(1.3333333,0,0,-1.3333333,231.77867,118.7212)"
       clip-path="url(#clipPath63)" />
  </g>
</svg>
