<?xml version="1.0" encoding="UTF-8" standalone="no"?>
<!-- Created with Inkscape (http://www.inkscape.org/) -->

<svg
   width="26.763563mm"
   height="26.846386mm"
   viewBox="0 0 26.763563 26.846386"
   version="1.1"
   id="svg1"
   xml:space="preserve"
   xmlns="http://www.w3.org/2000/svg"
   xmlns:svg="http://www.w3.org/2000/svg"><defs
     id="defs1"><clipPath
       clipPathUnits="userSpaceOnUse"
       id="clipPath856"><path
         d="M 0,595.276 H 419.528 V 0 H 0 Z"
         transform="translate(-308.87791,-563.07491)"
         id="path856" /></clipPath><clipPath
       clipPathUnits="userSpaceOnUse"
       id="clipPath858"><path
         d="M 0,595.276 H 419.528 V 0 H 0 Z"
         transform="translate(-311.54101,-560.60911)"
         id="path858" /></clipPath><clipPath
       clipPathUnits="userSpaceOnUse"
       id="clipPath860"><path
         d="M 0,595.276 H 419.528 V 0 H 0 Z"
         transform="translate(-313.25681,-558.65161)"
         id="path860" /></clipPath><clipPath
       clipPathUnits="userSpaceOnUse"
       id="clipPath862"><path
         d="M 0,595.276 H 419.528 V 0 H 0 Z"
         transform="translate(-316.07321,-496.61451)"
         id="path862" /></clipPath><clipPath
       clipPathUnits="userSpaceOnUse"
       id="clipPath864"><path
         d="M 0,595.276 H 419.528 V 0 H 0 Z"
         transform="translate(-331.06351,-494.58471)"
         id="path864" /></clipPath><clipPath
       clipPathUnits="userSpaceOnUse"
       id="clipPath866"><path
         d="M 0,595.276 H 419.528 V 0 H 0 Z"
         transform="translate(-345.58301,-496.61451)"
         id="path866" /></clipPath><clipPath
       clipPathUnits="userSpaceOnUse"
       id="clipPath868"><path
         d="M 0,595.276 H 419.528 V 0 H 0 Z"
         transform="translate(-357.84371,-491.25311)"
         id="path868" /></clipPath><clipPath
       clipPathUnits="userSpaceOnUse"
       id="clipPath870"><path
         d="M 0,595.276 H 419.528 V 0 H 0 Z"
         transform="translate(-374.90921,-496.80641)"
         id="path870" /></clipPath><clipPath
       clipPathUnits="userSpaceOnUse"
       id="clipPath872"><path
         d="M 0,595.276 H 419.528 V 0 H 0 Z"
         transform="translate(-351.14751,-527.74141)"
         id="path872" /></clipPath><clipPath
       clipPathUnits="userSpaceOnUse"
       id="clipPath874"><path
         d="M 0,595.276 H 419.528 V 0 H 0 Z"
         transform="translate(-320.45411,-515.88201)"
         id="path874" /></clipPath><clipPath
       clipPathUnits="userSpaceOnUse"
       id="clipPath876"><path
         d="M 0,595.276 H 419.528 V 0 H 0 Z"
         transform="translate(-337.25201,-514.69311)"
         id="path876" /></clipPath><clipPath
       clipPathUnits="userSpaceOnUse"
       id="clipPath878"><path
         d="M 0,595.276 H 419.528 V 0 H 0 Z"
         transform="translate(-351.37011,-506.37281)"
         id="path878" /></clipPath><clipPath
       clipPathUnits="userSpaceOnUse"
       id="clipPath880"><path
         d="M 0,595.276 H 419.528 V 0 H 0 Z"
         transform="translate(-365.93161,-506.37281)"
         id="path880" /></clipPath><clipPath
       clipPathUnits="userSpaceOnUse"
       id="clipPath882"><path
         d="M 0,595.276 H 419.528 V 0 H 0 Z"
         transform="translate(-374.97951,-550.89471)"
         id="path882" /></clipPath><clipPath
       clipPathUnits="userSpaceOnUse"
       id="clipPath884"><path
         d="M 0,595.276 H 419.528 V 0 H 0 Z"
         transform="translate(-374.60741,-552.84301)"
         id="path884" /></clipPath></defs><g
     id="layer1"
     transform="translate(-86.062547,-82.949786)"><g
       id="g1"
       transform="matrix(0.26458333,0,0,0.26458333,-22.902716,71.595591)"><path
         id="path855"
         d="m 0,0 c 12.625,0.016 25.28,0.016 37.92,0.016 h 37.936 c 0,-12.686 0.004,-25.372 0.007,-38.058 0.005,-12.687 0,-25.373 0,-38.042 H 37.92 0 V -38.059 0"
         style="fill:#55135f;fill-opacity:1;fill-rule:evenodd;stroke:none"
         transform="matrix(1.3333333,0,0,-1.3333333,411.8372,42.9348)"
         clip-path="url(#clipPath856)" /><path
         id="path857"
         d="m 0,0 c 11.743,0 23.508,-0.008 35.258,0 11.75,0.008 23.507,0.016 35.264,0.016 0,-11.874 0.004,-23.749 0.007,-35.608 0.005,-11.859 0,-23.718 0,-35.577 H 35.258 -0.007 c 0,11.843 0.007,23.686 0.007,35.561 z"
         style="fill:#ffffff;fill-opacity:1;fill-rule:evenodd;stroke:none"
         transform="matrix(1.3333333,0,0,-1.3333333,415.388,46.222533)"
         clip-path="url(#clipPath858)" /><path
         id="path859"
         d="m 0,0 c 11.171,0 22.363,-0.007 33.542,0 11.178,0.008 22.364,0.015 33.549,0.015 0,-9.266 0.004,-18.533 0.007,-27.784 0.005,-9.252 0,-18.503 0,-27.754 -11.185,0 -22.37,-0.007 -33.556,-0.015 -11.186,-0.008 -22.379,0 -33.55,0 0,9.237 -0.003,18.503 0,27.754 C -0.004,-18.533 0,-9.267 0,0"
         style="fill:#55135f;fill-opacity:1;fill-rule:evenodd;stroke:none"
         transform="matrix(1.3333333,0,0,-1.3333333,417.67573,48.832533)"
         clip-path="url(#clipPath860)" /><path
         id="path861"
         d="m 0,0 h 0.915 c 0.595,0 0.991,0.072 1.193,0.218 0.2,0.145 0.3,0.403 0.3,0.773 0,0.375 -0.095,0.635 -0.288,0.78 C 1.927,1.917 1.525,1.99 0.915,1.99 H 0 Z M -2.847,-5.361 V 4.376 H 0.801 C 1.608,4.376 2.247,4.324 2.719,4.221 3.189,4.117 3.584,3.95 3.901,3.722 4.311,3.417 4.615,3.041 4.815,2.591 5.018,2.142 5.117,1.608 5.117,0.991 5.117,-0.097 4.824,-0.931 4.238,-1.51 3.652,-2.091 2.808,-2.38 1.704,-2.38 H 0 v -2.981 z"
         style="fill:#55135f;fill-opacity:1;fill-rule:nonzero;stroke:none"
         transform="matrix(1.3333333,0,0,-1.3333333,421.43093,131.54867)"
         clip-path="url(#clipPath862)" /><path
         id="path863"
         d="M 0,0 H 1.788 L 0.903,3.372 Z m -3.66,-3.332 3.119,9.738 H 2.341 L 5.46,-3.332 H 2.636 l -0.331,1.29 h -2.822 l -0.343,-1.29 z"
         style="fill:#55135f;fill-opacity:1;fill-rule:nonzero;stroke:none"
         transform="matrix(1.3333333,0,0,-1.3333333,441.418,134.25507)"
         clip-path="url(#clipPath864)" /><path
         id="path865"
         d="M 0,0 H 0.915 C 1.509,0 1.906,0.072 2.107,0.218 2.308,0.363 2.408,0.621 2.408,0.991 2.408,1.366 2.312,1.626 2.12,1.771 1.927,1.917 1.524,1.99 0.915,1.99 H 0 Z M -2.847,-5.361 V 4.376 H 0.801 C 1.607,4.376 2.247,4.324 2.718,4.221 3.189,4.117 3.584,3.95 3.901,3.722 4.31,3.417 4.615,3.041 4.815,2.591 5.017,2.142 5.117,1.608 5.117,0.991 5.117,-0.097 4.824,-0.931 4.237,-1.51 3.652,-2.091 2.808,-2.38 1.704,-2.38 H 0 v -2.981 z"
         style="fill:#55135f;fill-opacity:1;fill-rule:nonzero;stroke:none"
         transform="matrix(1.3333333,0,0,-1.3333333,460.77733,131.54867)"
         clip-path="url(#clipPath866)" /><path
         id="path867"
         d="M 0,0 V 9.737 H 7.084 V 7.404 H 2.847 V 6.108 H 6.429 V 3.874 H 2.847 V 2.366 H 7.259 V 0 Z"
         style="fill:#55135f;fill-opacity:1;fill-rule:nonzero;stroke:none"
         transform="matrix(1.3333333,0,0,-1.3333333,477.12493,138.6972)"
         clip-path="url(#clipPath868)" /><path
         id="path869"
         d="m 0,0 h 1.294 c 0.454,0 0.767,0.067 0.939,0.201 0.172,0.135 0.259,0.37 0.259,0.705 0,0.343 -0.087,0.583 -0.259,0.716 C 2.061,1.757 1.724,1.824 1.222,1.824 H 0 Z M -2.811,-5.554 V 4.184 H 1.433 C 2.761,4.184 3.708,3.966 4.276,3.53 4.844,3.093 5.129,2.378 5.129,1.381 5.129,0.786 5.012,0.292 4.779,-0.1 4.547,-0.492 4.187,-0.803 3.701,-1.031 4.195,-1.146 4.555,-1.372 4.779,-1.709 5.004,-2.046 5.124,-2.541 5.141,-3.194 l 0.048,-1.354 c 0,-0.009 0,-0.021 0.005,-0.033 C 5.206,-4.97 5.29,-5.172 5.447,-5.189 V -5.554 H 2.576 C 2.523,-5.32 2.484,-5.116 2.459,-4.942 2.433,-4.768 2.42,-4.632 2.42,-4.535 v 0.972 c 0,0.502 -0.091,0.855 -0.272,1.061 -0.179,0.205 -0.493,0.307 -0.939,0.307 H 0 v -3.359 z"
         style="fill:#55135f;fill-opacity:1;fill-rule:nonzero;stroke:none"
         transform="matrix(1.3333333,0,0,-1.3333333,499.87893,131.2928)"
         clip-path="url(#clipPath870)" /><path
         id="path871"
         d="m 0,0 v 28.417 h 7.346 c 4.225,-5.874 8.459,-11.749 12.678,-17.623 v 17.623 h 7.174 V 0 H 19.86 C 15.643,5.593 11.408,11.185 7.182,16.778 V 0 Z m -14.023,19.253 c 1.723,1.88 3.446,3.76 5.176,5.656 -2.843,2.49 -5.503,3.493 -9.35,3.493 -4.842,0 -9.856,-2.49 -12.531,-7.645 -1.826,-3.321 -2.658,-6.814 -1.826,-11.138 h -3.336 c 2.445,-2.71 4.888,-5.42 7.339,-8.115 2.503,2.695 5.006,5.405 7.509,8.115 h -3.833 c -1.18,3.493 -0.497,6.313 1.672,8.648 2.332,2.663 6.35,2.976 9.18,0.986 m 6.172,4.668 c -2.339,-2.552 -4.679,-5.107 -7.003,-7.66 h 3.164 c 1.506,-2.992 1.165,-6.47 -1.003,-8.96 -2.667,-3.149 -7.005,-3.322 -9.678,-1.159 -1.732,-1.896 -3.462,-3.776 -5.185,-5.641 2.927,-2.334 6.27,-3.469 9.581,-3.399 3.313,0.07 6.612,1.316 9.455,3.728 4.85,3.996 5.846,9.635 4.68,15.446 h 3.335 c -2.451,2.554 -4.902,5.093 -7.346,7.645"
         style="fill:#ffffff;fill-opacity:1;fill-rule:evenodd;stroke:none"
         transform="matrix(1.3333333,0,0,-1.3333333,468.19667,90.046133)"
         clip-path="url(#clipPath872)" /><path
         id="path873"
         d="m 0,0 h 2.391 c 0.838,0 1.417,0.115 1.736,0.345 0.318,0.23 0.478,0.633 0.478,1.206 0,0.588 -0.16,0.997 -0.478,1.227 -0.319,0.23 -0.942,0.346 -1.87,0.346 H 0 Z M -5.196,-9.509 V 7.165 H 2.647 C 5.103,7.165 6.854,6.791 7.903,6.044 8.952,5.297 9.479,4.071 9.479,2.365 9.479,1.346 9.262,0.501 8.833,-0.17 8.401,-0.842 7.738,-1.374 6.841,-1.766 7.754,-1.963 8.417,-2.349 8.833,-2.927 9.248,-3.505 9.47,-4.352 9.501,-5.469 L 9.59,-7.788 c 0,-0.015 0.002,-0.036 0.01,-0.057 0.022,-0.664 0.177,-1.012 0.467,-1.042 V -9.509 H 4.761 c -0.096,0.4 -0.168,0.748 -0.217,1.047 -0.049,0.298 -0.072,0.53 -0.072,0.696 v 1.663 c 0,0.862 -0.167,1.467 -0.501,1.817 -0.334,0.352 -0.912,0.527 -1.736,0.527 H 0 v -5.75 z"
         style="fill:#ffffff;fill-opacity:1;fill-rule:nonzero;stroke:none"
         transform="matrix(1.3333333,0,0,-1.3333333,427.27213,105.85867)"
         clip-path="url(#clipPath874)" /><path
         id="path875"
         d="m 0,0 c 0,-1.578 0.259,-2.736 0.779,-3.475 0.519,-0.741 1.331,-1.109 2.437,-1.109 1.096,0 1.901,0.367 2.413,1.102 C 6.141,-2.745 6.396,-1.585 6.396,0 6.396,1.593 6.141,2.756 5.629,3.493 5.117,4.228 4.312,4.596 3.216,4.596 2.11,4.596 1.298,4.226 0.779,3.486 0.259,2.747 0,1.585 0,0 m -5.308,0 c 0,2.717 0.763,4.86 2.287,6.43 1.525,1.568 3.603,2.355 6.237,2.355 2.625,0 4.697,-0.787 6.218,-2.355 1.52,-1.57 2.281,-3.713 2.281,-6.43 0,-2.71 -0.761,-4.851 -2.281,-6.424 -1.521,-1.574 -3.593,-2.36 -6.218,-2.36 -2.634,0 -4.712,0.786 -6.237,2.36 C -4.545,-4.851 -5.308,-2.71 -5.308,0"
         style="fill:#ffffff;fill-opacity:1;fill-rule:nonzero;stroke:none"
         transform="matrix(1.3333333,0,0,-1.3333333,449.66933,107.44387)"
         clip-path="url(#clipPath876)" /><path
         id="path877"
         d="M 0,0 V 16.674 H 5.261 V 4.426 h 7.153 V 0 Z"
         style="fill:#ffffff;fill-opacity:1;fill-rule:nonzero;stroke:none"
         transform="matrix(1.3333333,0,0,-1.3333333,468.49347,118.5376)"
         clip-path="url(#clipPath878)" /><path
         id="path879"
         d="M 0,0 V 16.674 H 5.261 V 4.426 h 7.154 V 0 Z"
         style="fill:#ffffff;fill-opacity:1;fill-rule:nonzero;stroke:none"
         transform="matrix(1.3333333,0,0,-1.3333333,487.9088,118.5376)"
         clip-path="url(#clipPath880)" /><path
         id="path881"
         d="M 0,0 C 0.981,0.011 1.761,0.778 1.763,1.767 1.765,2.754 0.988,3.536 0.003,3.538 -0.979,3.539 -1.761,2.761 -1.762,1.772 -1.763,0.784 -0.984,0.013 0,0 M -0.129,3.991 H 0.13 C 0.138,3.99 0.146,3.987 0.153,3.986 0.294,3.977 0.432,3.952 0.567,3.917 1.709,3.616 2.421,2.452 2.163,1.297 1.874,0.002 0.611,-0.663 -0.513,-0.391 c -1.127,0.273 -1.86,1.371 -1.67,2.521 0.083,0.507 0.315,0.937 0.695,1.284 0.343,0.313 0.75,0.497 1.211,0.559 0.049,0.007 0.098,0.012 0.148,0.018"
         style="fill:#55135f;fill-opacity:1;fill-rule:nonzero;stroke:none"
         transform="matrix(1.3333333,0,0,-1.3333333,499.97267,59.175067)"
         clip-path="url(#clipPath882)" /><path
         id="path883"
         d="m 0,0 c 0.128,0.005 0.253,0.003 0.377,0.016 0.1,0.009 0.181,0.059 0.206,0.166 0.012,0.053 0.019,0.11 0.015,0.164 C 0.587,0.494 0.522,0.569 0.376,0.586 0.254,0.601 0.129,0.595 0.005,0.598 0.004,0.598 0.002,0.596 0,0.594 Z m -0.598,1.036 h 0.036 c 0.288,0 0.575,0 0.861,0 C 0.465,1.035 0.629,1.025 0.788,0.975 0.936,0.929 1.059,0.852 1.132,0.71 1.187,0.604 1.201,0.49 1.198,0.373 1.195,0.251 1.17,0.136 1.102,0.034 1.026,-0.077 0.919,-0.144 0.796,-0.189 0.786,-0.193 0.776,-0.197 0.759,-0.203 0.958,-0.262 1.058,-0.414 1.142,-0.579 1.26,-0.808 1.371,-1.042 1.485,-1.273 1.487,-1.278 1.489,-1.283 1.492,-1.291 H 1.456 c -0.188,0 -0.377,0 -0.565,-0.001 -0.025,0 -0.038,0.007 -0.049,0.03 -0.086,0.179 -0.173,0.357 -0.261,0.534 -0.028,0.056 -0.06,0.11 -0.095,0.162 C 0.425,-0.472 0.334,-0.42 0.222,-0.415 0.149,-0.41 0.077,-0.414 0,-0.414 v -0.875 h -0.598 z"
         style="fill:#55135f;fill-opacity:1;fill-rule:nonzero;stroke:none"
         transform="matrix(1.3333333,0,0,-1.3333333,499.47653,56.577333)"
         clip-path="url(#clipPath884)" /></g></g></svg>
