<?xml version="1.0" encoding="UTF-8" standalone="no"?>
<!-- Created with Inkscape (http://www.inkscape.org/) -->

<svg
   width="94.821556mm"
   height="54.341736mm"
   viewBox="0 0 94.821556 54.341736"
   version="1.1"
   id="svg1"
   xml:space="preserve"
   xmlns="http://www.w3.org/2000/svg"
   xmlns:svg="http://www.w3.org/2000/svg"><defs
     id="defs1" /><g
     id="layer1"
     transform="translate(-43.710765,-53.394693)"><g
       transform="matrix(0.03527778,0,0,-0.03527778,20.568539,151.11414)"
       fill="#000000"
       stroke="none"
       id="g5"
       style="fill:#0060da;fill-opacity:1"><path
         d="m 1033,2755 c -37,-16 -50,-37 -63,-105 -7,-39 -6,-59 4,-84 27,-64 35,-66 288,-66 h 228 l 30,28 c 24,21 33,40 41,87 13,74 2,107 -43,135 -30,18 -50,20 -243,20 -156,-1 -218,-4 -242,-15 z"
         id="path1"
         style="fill:#0060da;fill-opacity:1" /><path
         d="m 1841,2758 c -43,-23 -63,-61 -68,-131 -5,-63 -4,-67 25,-96 l 30,-31 h 244 c 147,0 259,-4 283,-11 25,-7 58,-29 86,-58 66,-65 75,-112 49,-254 -21,-117 -34,-149 -77,-188 -67,-63 -69,-63 -414,-69 -338,-5 -337,-5 -358,-58 -12,-31 -91,-492 -91,-534 0,-16 12,-41 29,-60 l 29,-33 677,-3 c 431,-1 690,1 714,8 53,14 116,72 135,123 9,23 29,121 45,217 17,96 62,357 101,580 64,360 70,409 60,445 -19,63 -48,103 -98,133 l -47,27 -665,3 c -517,1 -670,-1 -689,-10 z"
         id="path2"
         style="fill:#0060da;fill-opacity:1" /><path
         d="m 1140,2323 c -32,-28 -49,-79 -50,-140 0,-22 9,-43 29,-65 l 29,-33 426,-3 c 369,-2 430,-1 456,13 37,19 56,55 64,120 8,58 -16,109 -60,125 -15,6 -196,10 -444,10 h -420 z"
         id="path3"
         style="fill:#0060da;fill-opacity:1" /><path
         d="m 697,1894 c -27,-27 -41,-71 -41,-138 0,-31 6,-44 32,-67 l 32,-29 h 311 c 194,0 318,4 330,10 28,16 48,62 55,129 6,57 5,61 -24,90 l -30,31 H 1042 723 Z"
         id="path4"
         style="fill:#0060da;fill-opacity:1" /><path
         d="m 1008,1484 c -34,-18 -46,-39 -58,-104 -12,-64 5,-112 49,-134 40,-21 227,-22 276,-2 39,17 52,37 65,106 11,60 -3,107 -41,134 -32,22 -250,23 -291,0 z"
         id="path5"
         style="fill:#0060da;fill-opacity:1" /></g></g></svg>
