<?xml version="1.0" encoding="UTF-8"?>
<svg id="Layer_1" data-name="Layer 1" xmlns="http://www.w3.org/2000/svg" viewBox="0 0 751.18 742.52">
  <defs>
    <style>
      .cls-1 {
        fill: #00adba;
      }
    </style>
  </defs>
  <circle class="cls-1" cx="676.25" cy="127.99" r="35.7"/>
  <path class="cls-1" d="M103.44,699.03l-54.67-13.43c.83-3.57,83.92-359.01,119.4-494.74,12.04-46.05,12.91-68.8,12-79.18-21.3,12.01-65.8,59.07-89.83,111.08l-51.11-23.61c23.64-51.18,104.38-165.28,163.9-143.95,47.56,17.05,35.42,89.06,19.52,149.9-2.08,7.94-4.32,16.64-6.7,25.99C284.41,100.85,351.76,39.3,420.39,43.71c28.6,1.83,56.79,16.27,83.78,42.9.5.5,1.01,1,1.5,1.5,35.31-10.54,73.65-12.5,114.26-5.83l-9.14,55.55c-25.22-4.14-49.09-4.14-71.34-.02,11.34,24.57,18.65,53.23,21.59,85.12,4.49,48.78-1.49,104.08-16.84,155.7-26.65,89.6-74.21,149.52-127.23,160.29-30.24,6.14-62.85-3.19-85.09-24.34-33.65-32.01-44.72-92.89-30.37-167.04,10-51.69,31.64-103.99,60.94-147.28,24.84-36.71,54.52-66.1,87.22-86.64-8.88-6.56-20.44-12.94-32.88-13.74-58.52-3.74-135.21,101.31-210.64,288.23-61.75,153.01-102.3,309.35-102.7,310.91ZM486.45,157.37c-53.83,31.27-110.34,101.01-129.67,200.87-10.16,52.5-4.71,97.85,13.9,115.54,8.86,8.42,22.95,12.43,35.09,9.96,30.84-6.26,64.78-54.95,84.48-121.16,19.3-64.89,23.97-149.52-3.79-205.21Z"/>
</svg>